g Eye_L
v 0.06576791 1.57182 0.07919052
v 0.07330703 1.569426 0.0646112
v 0.07238248 1.551831 0.06757126
v 0.06618545 1.553233 0.08087234
v 0.06525639 1.537386 0.08320358
v 0.07093971 1.535808 0.07249557
v 0.05265385 1.572897 0.09218918
v 0.05479427 1.553747 0.09579697
v 0.05355282 1.538213 0.09354721
v 0.06879807 1.524512 0.07429542
v 0.06212492 1.525009 0.08244995
v 0.06370219 1.513601 0.07781173
v 0.05588171 1.510526 0.08617584
v 0.05176087 1.525121 0.09139175
v 0.07843094 1.548109 0.05084259
v 0.07434425 1.533538 0.0541188
v 0.08056635 1.565378 0.04698694
v 0.03931682 1.573517 0.1033893
v 0.03972333 1.553932 0.1074264
v 0.01861438 1.573751 0.114745
v 0.01651016 1.553694 0.1156808
v 0.02225257 1.539361 0.1073439
v 0.01305941 1.538441 0.1120151
v 0.009868834 1.525241 0.1053575
v 0.01948049 1.52681 0.09871872
v 0.03790848 1.539431 0.1014819
v 0.03782852 1.526151 0.09691361
v 0.0202203 1.518094 0.09753159
v 0.007810875 1.514012 0.1043611
v 0.01657968 1.511251 0.09836578
v 0.01438326 1.503469 0.101151
v 0.006768668 1.505273 0.1057847
v 0.0264757 1.51006 0.0949562
v 0.03859259 1.507447 0.09310532
v 0.03777739 1.500247 0.09453765
v 0.02506125 1.501822 0.09790985
v 0.04890246 1.508261 0.09042465
v 0.04871831 1.499476 0.09103378
v 0.05627737 1.499518 0.08461151
v 0.0632546 1.502617 0.07404388
v 0.06745747 1.511129 0.06391266
v 0.07146294 1.522528 0.05730575
vt 0.7545238 0.9200276
vt 0.9615713 0.8450514
vt 0.9044222 0.6955612
vt 0.7383141 0.7290111
vt 0.7034758 0.5471441
vt 0.823272 0.5249434
vt 0.5749176 0.9473344
vt 0.5786369 0.7384327
vt 0.5719565 0.5576526
vt 0.7748009 0.3867292
vt 0.6851308 0.3873002
vt 0.7143005 0.2608495
vt 0.6020374 0.2251775
vt 0.550514 0.3901573
vt 0.9813912 0.6296767
vt 0.9813912 0.4694481
vt 1 0.7742333
vt 0.3970081 0.9685853
vt 0.3820456 0.7447889
vt 0.1144451 0.9678062
vt 0.119515 0.7426858
vt 0.191193 0.5737974
vt 0.04584652 0.5502301
vt 0.03798568 0.3947211
vt 0.1592245 0.4174958
vt 0.378079 0.5683928
vt 0.3794934 0.4101551
vt 0.1722047 0.3111009
vt 0.02043664 0.2751958
vt 0.1288767 0.2474489
vt 0.1141163 0.1659166
vt 0 0.1848434
vt 0.2534347 0.2085516
vt 0.3869787 0.1897381
vt 0.3817658 0.114363
vt 0.225905 0.1400399
vt 0.5092805 0.195314
vt 0.4919152 0.08989779
vt 0.599847 0.0743456
vt 0.7110752 0.1093043
vt 0.8228818 0.2144842
vt 0.9320068 0.3260087
vn 0.8208624 0.1001269 0.5622807
vn 0.9174258 0.01426111 0.3976512
vn 0.9279264 -0.01349969 0.372519
vn 0.8237977 0.05315401 0.5643864
vn 0.7826957 -0.08135304 0.617065
vn 0.9336855 -0.09104095 0.3463278
vn 0.6852964 0.1672541 0.7087982
vn 0.6680013 0.02135994 0.7438535
vn 0.581211 -0.1938046 0.7903375
vn 0.9110699 -0.2063431 0.3568952
vn 0.7070305 -0.1655751 0.6875265
vn 0.8585174 -0.211519 0.4671269
vn 0.666595 -0.1078102 0.7375825
vn 0.4823659 -0.1841685 0.8563907
vn 0.9445853 -0.05030173 0.324389
vn 0.9616256 -0.127373 0.2430067
vn 0.9316044 -0.01073875 0.3633152
vn 0.5066733 0.1407172 0.8505768
vn 0.4876983 -0.02581303 0.8726305
vn 0.4058192 0.09663142 0.9088306
vn 0.3963581 -0.08875153 0.9137961
vn 0.3749013 -0.4392013 0.8164259
vn 0.4157288 -0.4328795 0.7998655
vn 0.5148125 -0.3828911 0.7670479
vn 0.3564347 -0.3967014 0.845921
vn 0.389885 -0.3241566 0.8619236
vn 0.2687491 -0.2254348 0.9364578
vn 0.3327121 -0.1557025 0.9300857
vn 0.5392086 -0.06660452 0.8395343
vn 0.4634525 0.02966401 0.8856251
vn 0.4607055 0.1702999 0.8710616
vn 0.5609088 0.09942742 0.8218853
vn 0.2149058 0.03042934 0.9761606
vn 0.2604303 -0.03014456 0.965022
vn 0.2558126 0.1774087 0.9503084
vn 0.2846732 0.2432246 0.9272556
vn 0.4341746 -0.08163383 0.8971223
vn 0.4428272 0.03733853 0.8958292
vn 0.7160048 -0.03942885 0.696981
vn 0.8806562 -0.1434911 0.451503
vn 0.9364715 -0.2553735 0.2404275
vn 0.9552671 -0.2133375 0.2048218
g Eye_L_0
f 3/3/3 2/2/2 1/1/1
f 4/4/4 3/3/3 1/1/1
f 4/4/4 5/5/5 3/3/3
f 5/5/5 6/6/6 3/3/3
f 4/4/4 1/1/1 7/7/7
f 8/8/8 4/4/4 7/7/7
f 9/9/9 5/5/5 4/4/4
f 8/8/8 9/9/9 4/4/4
f 6/6/6 5/5/5 10/10/10
f 5/5/5 11/11/11 10/10/10
f 5/5/5 9/9/9 11/11/11
f 12/12/12 10/10/10 11/11/11
f 13/13/13 12/12/12 11/11/11
f 9/9/9 14/14/14 11/11/11
f 11/11/11 14/14/14 13/13/13
f 15/15/15 3/3/3 6/6/6
f 2/2/2 3/3/3 15/15/15
f 16/16/16 15/15/15 6/6/6
f 17/17/17 2/2/2 15/15/15
f 8/8/8 7/7/7 18/18/18
f 19/19/19 8/8/8 18/18/18
f 19/19/19 18/18/18 20/20/20
f 21/21/21 19/19/19 20/20/20
f 22/22/22 19/19/19 21/21/21
f 23/23/23 22/22/22 21/21/21
f 23/23/23 24/24/24 22/22/22
f 24/24/24 25/25/25 22/22/22
f 22/22/22 25/25/25 26/26/26
f 22/22/22 26/26/26 19/19/19
f 27/27/27 26/26/26 25/25/25
f 25/25/25 24/24/24 28/28/28
f 25/25/25 28/28/28 27/27/27
f 24/24/24 29/29/29 28/28/28
f 29/29/29 30/30/30 28/28/28
f 31/31/31 30/30/30 29/29/29
f 32/32/32 31/31/31 29/29/29
f 30/30/30 31/31/31 33/33/33
f 28/28/28 30/30/30 33/33/33
f 28/28/28 33/33/33 27/27/27
f 33/33/33 34/34/34 27/27/27
f 34/34/34 33/33/33 35/35/35
f 33/33/33 36/36/36 35/35/35
f 31/31/31 36/36/36 33/33/33
f 14/14/14 27/27/27 34/34/34
f 37/37/37 14/14/14 34/34/34
f 38/38/38 37/37/37 34/34/34
f 35/35/35 38/38/38 34/34/34
f 38/38/38 39/39/39 37/37/37
f 39/39/39 13/13/13 37/37/37
f 14/14/14 37/37/37 13/13/13
f 27/27/27 14/14/14 9/9/9
f 26/26/26 27/27/27 9/9/9
f 26/26/26 9/9/9 8/8/8
f 19/19/19 26/26/26 8/8/8
f 40/40/40 13/13/13 39/39/39
f 12/12/12 13/13/13 40/40/40
f 41/41/41 12/12/12 40/40/40
f 10/10/10 12/12/12 41/41/41
f 42/42/42 10/10/10 41/41/41
f 6/6/6 10/10/10 42/42/42
f 16/16/16 6/6/6 42/42/42
