g Mouth
v -0.01545989 1.472105 0.108078
v -0.00475464 1.479254 0.1160966
v -0.005538173 1.471418 0.1125604
v -0.01728309 1.479376 0.1059705
v -0.008093169 1.482548 0.1126161
v -1.596942E-22 1.471124 0.1144873
v -1.596942E-22 1.477705 0.117881
v -1.596942E-22 1.464342 0.1116444
v -0.007033622 1.464325 0.1099176
v -1.596942E-22 1.458304 0.108376
v -0.007843198 1.458919 0.1069411
v 0 1.453101 0.1058609
v -0.007952977 1.454027 0.1040129
v -0.01423262 1.464362 0.1070929
v -0.00642801 1.445992 0.09873398
v -0.01442374 1.447727 0.09717422
v -1.596942E-22 1.445505 0.0999086
v -0.005582208 1.435651 0.09393585
v 0 1.434742 0.09553177
v -0.01711869 1.461356 0.1041937
v -0.01503806 1.440592 0.0881549
v -0.02267493 1.452062 0.0943547
v -0.02050122 1.457444 0.1000269
v -0.02469697 1.468129 0.101582
v -0.02947091 1.475602 0.09967514
v -0.0306848 1.463439 0.09565048
v -0.03851676 1.471586 0.09299728
v -0.03339706 1.459052 0.09004012
v -0.0437516 1.467765 0.08503464
v -0.0255638 1.446551 0.08283096
v 0.005582208 1.435651 0.09393585
v 0.00642801 1.445992 0.09873398
v 0.007952977 1.454027 0.1040129
v 0.007843198 1.458919 0.1069411
v 0.007033622 1.464325 0.1099176
v 0.005538173 1.471418 0.1125604
v 0.00475464 1.479254 0.1160966
v 0.01545989 1.472105 0.108078
v 0.01728309 1.479376 0.1059705
v 0.008093169 1.482548 0.1126161
v 0.01423262 1.464362 0.1070929
v 0.01442374 1.447727 0.09717422
v 0.02469697 1.468129 0.101582
v 0.02947091 1.475602 0.09967514
v 0.01711869 1.461356 0.1041937
v 0.01503806 1.440592 0.0881549
v 0.02267493 1.452062 0.0943547
v 0.0306848 1.463439 0.09565048
v 0.03851676 1.471586 0.09299728
v 0.02050122 1.457444 0.1000269
v 0.03339706 1.459052 0.09004012
v 0.0437516 1.467765 0.08503464
v 0.0255638 1.446551 0.08283096
vt 0.2240714 0.6645858
vt 0.3783241 0.7724985
vt 0.3896267 0.6575537
vt 0.1830946 0.782984
vt 0.2866589 0.8398207
vt 0.5 0.6547282
vt 0.5 0.7511901
vt 0.5 0.5408196
vt 0.3778883 0.5392938
vt 0.5 0.440238
vt 0.3688846 0.4497344
vt 0.5 0.336074
vt 0.3670424 0.3540882
vt 0.2599092 0.5380486
vt 0.3680849 0.2421371
vt 0.2313626 0.2867921
vt 0.5 0.2331746
vt 0.3710038 0.1121682
vt 0.5 0.07548499
vt 0.2132308 0.4883479
vt 0.2153006 0.184189
vt 0.1082421 0.3651946
vt 0.1723428 0.4326715
vt 0.08605841 0.5965998
vt 0.0744758 0.7164627
vt 0.08063063 0.5365422
vt 0.05015031 0.6654202
vt 0.02055326 0.480184
vt 0 0.6162654
vt 0.07345486 0.2854849
vt 0.6289962 0.1121682
vt 0.6319151 0.2421371
vt 0.6329576 0.3540882
vt 0.6311154 0.4497344
vt 0.6221117 0.5392938
vt 0.6103733 0.6575537
vt 0.6216759 0.7724985
vt 0.7759287 0.6645858
vt 0.8169054 0.782984
vt 0.7133411 0.8398207
vt 0.7400908 0.5380486
vt 0.7686374 0.2867921
vt 0.9139415 0.5965998
vt 0.9255241 0.7164627
vt 0.7867692 0.4883479
vt 0.7846993 0.184189
vt 0.8917578 0.3651946
vt 0.9193695 0.5365422
vt 0.9498496 0.6654202
vt 0.8276571 0.4326715
vt 0.9794466 0.480184
vt 1 0.6162654
vt 0.9265451 0.2854849
vn -0.5166688 -0.06448703 0.8537533
vn -0.5175214 -0.1507327 0.8422893
vn -0.3602343 -0.310602 0.8796349
vn -0.56208 0.04600326 0.8258025
vn -0.6245713 0.1042443 0.7739791
vn -5.928669E-07 -0.3786069 0.9255576
vn -7.123774E-07 -0.4153724 0.9096515
vn -6.572951E-07 -0.4024182 0.9154559
vn -0.3150667 -0.3368758 0.8872698
vn -1.920081E-07 -0.4700791 0.8826243
vn -0.2974479 -0.4640211 0.8343915
vn 4.1036E-07 -0.5491131 0.8357481
vn -0.2966547 -0.5151525 0.8041231
vn -0.4041086 -0.3010372 0.8637551
vn -0.2478897 -0.4909551 0.835173
vn -0.4579879 -0.5609431 0.6896303
vn 1.829457E-07 -0.5076013 0.8615921
vn -0.3690016 -0.4697345 0.8019896
vn 0 -0.407384 0.9132569
vn -0.453847 -0.380741 0.8056421
vn -0.5986313 -0.6249089 0.5011283
vn -0.5791336 -0.5769737 0.5759389
vn -0.507678 -0.4315782 0.7456564
vn -0.5349889 -0.1743698 0.8266692
vn -0.5405251 -0.1247437 0.8320286
vn -0.5789551 -0.354961 0.7340392
vn -0.605069 -0.3113059 0.7327893
vn -0.6114436 -0.5039379 0.6100682
vn -0.6522667 -0.4171638 0.6328684
vn -0.6045233 -0.649011 0.4618834
vn 0.3690003 -0.4697332 0.8019909
vn 0.2478897 -0.4909552 0.8351728
vn 0.2966545 -0.5151523 0.8041232
vn 0.2974478 -0.4640214 0.8343914
vn 0.3150675 -0.336876 0.8872694
vn 0.3602347 -0.3106015 0.8796349
vn 0.5175204 -0.150732 0.84229
vn 0.5166686 -0.06448738 0.8537534
vn 0.5620797 0.04600317 0.8258027
vn 0.6245706 0.104244 0.7739798
vn 0.4041093 -0.3010385 0.8637543
vn 0.4579864 -0.5609417 0.6896324
vn 0.5349881 -0.1743696 0.8266699
vn 0.5405247 -0.1247438 0.8320289
vn 0.4538455 -0.3807402 0.8056433
vn 0.5986305 -0.6249086 0.5011294
vn 0.579132 -0.5769724 0.5759419
vn 0.5789537 -0.3549603 0.7340407
vn 0.6050686 -0.3113057 0.7327897
vn 0.5076759 -0.4315765 0.7456587
vn 0.6114413 -0.503936 0.6100723
vn 0.6522657 -0.4171628 0.6328701
vn 0.6045234 -0.6490115 0.4618825
g Mouth_0
f 3/3/3 2/2/2 1/1/1
f 1/1/1 2/2/2 4/4/4
f 2/2/2 5/5/5 4/4/4
f 3/3/3 6/6/6 2/2/2
f 6/6/6 7/7/7 2/2/2
f 6/6/6 3/3/3 8/8/8
f 3/3/3 9/9/9 8/8/8
f 10/10/10 8/8/8 9/9/9
f 11/11/11 10/10/10 9/9/9
f 12/12/12 10/10/10 11/11/11
f 13/13/13 12/12/12 11/11/11
f 3/3/3 1/1/1 14/14/14
f 9/9/9 3/3/3 14/14/14
f 11/11/11 9/9/9 14/14/14
f 13/13/13 15/15/15 12/12/12
f 15/15/15 13/13/13 16/16/16
f 15/15/15 17/17/17 12/12/12
f 18/18/18 15/15/15 16/16/16
f 17/17/17 15/15/15 18/18/18
f 19/19/19 17/17/17 18/18/18
f 20/20/20 11/11/11 14/14/14
f 13/13/13 11/11/11 20/20/20
f 14/14/14 1/1/1 20/20/20
f 16/16/16 21/21/21 18/18/18
f 21/21/21 16/16/16 22/22/22
f 23/23/23 13/13/13 20/20/20
f 23/23/23 22/22/22 16/16/16
f 16/16/16 13/13/13 23/23/23
f 20/20/20 24/24/24 23/23/23
f 1/1/1 24/24/24 20/20/20
f 1/1/1 4/4/4 24/24/24
f 4/4/4 25/25/25 24/24/24
f 24/24/24 25/25/25 26/26/26
f 24/24/24 26/26/26 23/23/23
f 22/22/22 23/23/23 26/26/26
f 25/25/25 27/27/27 26/26/26
f 28/28/28 22/22/22 26/26/26
f 29/29/29 28/28/28 26/26/26
f 26/26/26 27/27/27 29/29/29
f 30/30/30 22/22/22 28/28/28
f 22/22/22 30/30/30 21/21/21
f 17/17/17 19/19/19 31/31/31
f 32/32/32 17/17/17 31/31/31
f 17/17/17 32/32/32 12/12/12
f 32/32/32 33/33/33 12/12/12
f 12/12/12 33/33/33 34/34/34
f 10/10/10 12/12/12 34/34/34
f 10/10/10 34/34/34 35/35/35
f 8/8/8 10/10/10 35/35/35
f 35/35/35 36/36/36 8/8/8
f 36/36/36 6/6/6 8/8/8
f 6/6/6 36/36/36 37/37/37
f 37/37/37 36/36/36 38/38/38
f 37/37/37 38/38/38 39/39/39
f 40/40/40 37/37/37 39/39/39
f 7/7/7 6/6/6 37/37/37
f 36/36/36 35/35/35 41/41/41
f 38/38/38 36/36/36 41/41/41
f 35/35/35 34/34/34 41/41/41
f 33/33/33 32/32/32 42/42/42
f 32/32/32 31/31/31 42/42/42
f 39/39/39 38/38/38 43/43/43
f 44/44/44 39/39/39 43/43/43
f 38/38/38 41/41/41 45/45/45
f 43/43/43 38/38/38 45/45/45
f 34/34/34 45/45/45 41/41/41
f 46/46/46 42/42/42 31/31/31
f 42/42/42 46/46/46 47/47/47
f 44/44/44 43/43/43 48/48/48
f 49/49/49 44/44/44 48/48/48
f 34/34/34 33/33/33 45/45/45
f 33/33/33 50/50/50 45/45/45
f 47/47/47 50/50/50 42/42/42
f 43/43/43 45/45/45 50/50/50
f 48/48/48 43/43/43 50/50/50
f 50/50/50 47/47/47 48/48/48
f 33/33/33 42/42/42 50/50/50
f 47/47/47 51/51/51 48/48/48
f 51/51/51 52/52/52 48/48/48
f 49/49/49 48/48/48 52/52/52
f 47/47/47 53/53/53 51/51/51
f 53/53/53 47/47/47 46/46/46
